<svg xmlns="http://www.w3.org/2000/svg" width="250" height="25" fill="none" viewBox="0 0 250 25">
    <path fill="#121212" d="M82.002 7.436V20h-2.52v-8.172L76.118 20h-1.909l-3.383-8.172V20h-2.52V7.436h2.861l3.996 9.342 3.996-9.342h2.844zm12.032 2.592L87.86 24.716h-2.682l2.16-4.968-3.996-9.72h2.826l2.574 6.966 2.61-6.966h2.682zM110.427 20h-2.52l-5.706-8.622V20h-2.52V7.418h2.52l5.706 8.64v-8.64h2.52V20zm10.249-12.564V9.47h-5.238v3.222h4.014v1.998h-4.014V20h-2.52V7.436h7.758zm10.337 0V9.47h-3.348V20h-2.52V9.47h-3.348V7.436h9.216zm15.289 3.888c0 .672-.162 1.302-.486 1.89-.312.588-.81 1.062-1.494 1.422-.672.36-1.524.54-2.556.54h-2.106V20h-2.52V7.436h4.626c.972 0 1.8.168 2.484.504.684.336 1.194.798 1.53 1.386.348.588.522 1.254.522 1.998zm-4.644 1.818c.696 0 1.212-.156 1.548-.468.336-.324.504-.774.504-1.35 0-1.224-.684-1.836-2.052-1.836h-1.998v3.654h1.998zm5.786 1.836c0-1.008.198-1.902.594-2.682.408-.78.954-1.38 1.638-1.8.696-.42 1.47-.63 2.322-.63.744 0 1.392.15 1.944.45.564.3 1.014.678 1.35 1.134v-1.422h2.538V20h-2.538v-1.458c-.324.468-.774.858-1.35 1.17-.564.3-1.218.45-1.962.45-.84 0-1.608-.216-2.304-.648-.684-.432-1.23-1.038-1.638-1.818-.396-.792-.594-1.698-.594-2.718zm7.848.036c0-.612-.12-1.134-.36-1.566-.24-.444-.564-.78-.972-1.008-.408-.24-.846-.36-1.314-.36-.468 0-.9.114-1.296.342-.396.228-.72.564-.972 1.008-.24.432-.36.948-.36 1.548 0 .6.12 1.128.36 1.584.252.444.576.786.972 1.026.408.24.84.36 1.296.36.468 0 .906-.114 1.314-.342.408-.24.732-.576.972-1.008.24-.444.36-.972.36-1.584zm6.277-6.174c-.444 0-.816-.138-1.116-.414-.288-.288-.432-.642-.432-1.062 0-.42.144-.768.432-1.044.3-.288.672-.432 1.116-.432.444 0 .81.144 1.098.432.3.276.45.624.45 1.044 0 .42-.15.774-.45 1.062-.288.276-.654.414-1.098.414zm1.242 1.188V20h-2.52v-9.972h2.52zm8.016-.144c1.188 0 2.148.378 2.88 1.134.732.744 1.098 1.788 1.098 3.132V20h-2.52v-5.508c0-.792-.198-1.398-.594-1.818-.396-.432-.936-.648-1.62-.648-.696 0-1.248.216-1.656.648-.396.42-.594 1.026-.594 1.818V20h-2.52v-9.972h2.52v1.242c.336-.432.762-.768 1.278-1.008.528-.252 1.104-.378 1.728-.378zm9.308 2.214v4.824c0 .336.078.582.234.738.168.144.444.216.828.216h1.17V20h-1.584c-2.124 0-3.186-1.032-3.186-3.096v-4.806h-1.188v-2.07h1.188V7.562h2.538v2.466h2.232v2.07h-2.232z"/>
</svg>
