<svg xmlns="http://www.w3.org/2000/svg" width="116" height="116" fill="none" viewBox="0 0 116 116">
    <g filter="url(#filter0_d)">
        <circle cx="58" cy="54" r="38" fill="#fff"/>
        <circle cx="58" cy="54" r="37" stroke="url(#paint0_linear)" stroke-width="2"/>
    </g>
    <path fill="url(#paint1_linear)" d="M78.998 45.395C67.024 47.51 59.366 36.143 57.563 33.12c-.188-.311-.64-.305-.822.007-.884 1.498-3.167 5.064-6.523 8.223-3.648 3.437-9.384 3.07-11.591 2.772-.425-.054-.773.332-.662.739C42.15 59.82 49.23 66.836 51.172 68.226c1.977 1.424 3.335 2.84 4.588 5.28 1.253 2.434 3.96 1.824 4.17 0 .209-1.823 5.423-6.188 11.257-11.266 5.827-5.07 8.528-16.973 7.81-16.845zm-23.273 19.55c0 1.437-.843 1.437-5.493 0C45.582 63.501 39.1 45.091 39.1 45.091c7.575 3.321 17.467-8.318 17.467-8.318s-.842 26.728-.842 28.172zm4.615 1.966c-1.67 0-2.29-1.925-2.29-1.925s-.564-28.952 0-28.213c7.818 10.25 19.18 9.85 19.18 9.85C72.85 64.273 62.01 66.91 60.34 66.91z"/>
    <defs>
        <linearGradient id="paint0_linear" x1="30.028" x2="83.333" y1="28.139" y2="81.444" gradientUnits="userSpaceOnUse">
            <stop stop-color="#F7D637"/>
            <stop offset="1" stop-color="#2FCF57"/>
        </linearGradient>
        <linearGradient id="paint1_linear" x1="41.892" x2="78.354" y1="41.937" y2="63.875" gradientUnits="userSpaceOnUse">
            <stop stop-color="#F7D637"/>
            <stop offset="1" stop-color="#2FCF57"/>
        </linearGradient>
        <filter id="filter0_d" width="116" height="116" x="0" y="0" color-interpolation-filters="sRGB" filterUnits="userSpaceOnUse">
            <feFlood flood-opacity="0" result="BackgroundImageFix"/>
            <feColorMatrix in="SourceAlpha" values="0 0 0 0 0 0 0 0 0 0 0 0 0 0 0 0 0 0 127 0"/>
            <feOffset dy="4"/>
            <feGaussianBlur stdDeviation="10"/>
            <feColorMatrix values="0 0 0 0 0 0 0 0 0 0 0 0 0 0 0 0 0 0 0.1 0"/>
            <feBlend in2="BackgroundImageFix" result="effect1_dropShadow"/>
            <feBlend in="SourceGraphic" in2="effect1_dropShadow" result="shape"/>
        </filter>
    </defs>
</svg>
