<svg xmlns="http://www.w3.org/2000/svg" width="116" height="116" fill="none" viewBox="0 0 116 116">
    <g filter="url(#filter0_d)">
        <circle cx="58" cy="54" r="38" fill="#fff"/>
        <circle cx="58" cy="54" r="37" stroke="url(#paint0_linear)" stroke-width="2"/>
    </g>
    <path fill="url(#paint1_linear)" fill-rule="evenodd" d="M47.422 36.548c-4.244 4.389-6.794 12.6-6.794 12.6-1.275 3.415-1.912 15.09 6.166 17.57 8.068 2.481 11.256-7.253 10.19-9.579-1.065-2.325-1.703-15.244-1.703-20.59 0-5.347-3.615-4.39-7.859 0zm-2.614 38.465c1.867.474 3.716-.827 3.716-2.571 0-2.866-6.411-5.92-8.66-6.485-2.25-.573-2.851.95 0 5.535 1.31 2.104 3.241 3.078 4.944 3.52zm31.62-25.864s-2.55-8.212-6.795-12.6c-4.243-4.39-7.859-5.347-7.859 0 0 5.346-.637 18.265-1.703 20.59-1.065 2.326 2.122 12.06 10.19 9.58 8.07-2.481 7.441-14.156 6.166-17.57zm-4.18 25.864c-1.868.474-3.717-.827-3.717-2.571 0-2.866 6.412-5.92 8.661-6.485 2.25-.573 2.85.95 0 5.535-1.311 2.104-3.242 3.078-4.945 3.52z" clip-rule="evenodd"/>
    <defs>
        <linearGradient id="paint0_linear" x1="30.028" x2="83.333" y1="28.139" y2="81.444" gradientUnits="userSpaceOnUse">
            <stop stop-color="#F7D637"/>
            <stop offset="1" stop-color="#2FCF57"/>
        </linearGradient>
        <linearGradient id="paint1_linear" x1="37.81" x2="80.93" y1="40.503" y2="69.545" gradientUnits="userSpaceOnUse">
            <stop stop-color="#F7D637"/>
            <stop offset="1" stop-color="#2FCF57"/>
        </linearGradient>
        <filter id="filter0_d" width="116" height="116" x="0" y="0" color-interpolation-filters="sRGB" filterUnits="userSpaceOnUse">
            <feFlood flood-opacity="0" result="BackgroundImageFix"/>
            <feColorMatrix in="SourceAlpha" values="0 0 0 0 0 0 0 0 0 0 0 0 0 0 0 0 0 0 127 0"/>
            <feOffset dy="4"/>
            <feGaussianBlur stdDeviation="10"/>
            <feColorMatrix values="0 0 0 0 0 0 0 0 0 0 0 0 0 0 0 0 0 0 0.1 0"/>
            <feBlend in2="BackgroundImageFix" result="effect1_dropShadow"/>
            <feBlend in="SourceGraphic" in2="effect1_dropShadow" result="shape"/>
        </filter>
    </defs>
</svg>
