<svg xmlns="http://www.w3.org/2000/svg" width="116" height="116" fill="none" viewBox="0 0 116 116">
    <g filter="url(#filter0_d)">
        <circle cx="58" cy="54" r="38" fill="#fff"/>
        <circle cx="58" cy="54" r="37" stroke="url(#paint0_linear)" stroke-width="2"/>
    </g>
    <path fill="url(#paint1_linear)" fill-rule="evenodd" d="M60.928 33.92c-.958 1.052-1.933 3.652-2.056 5.81-.5 9.07 3.549 10.07 5.499 9.548 1.95-.512 3.927-4.385 2.688-10.698-1.318-6.676-4.585-6.349-6.131-4.66zm9.882 15.102c.413-2.122 1.74-4.562 2.837-5.464 1.757-1.46 5.051-1.327 5.429 5.464.36 6.428-2.126 9.982-4.137 10.22-2.003.24-5.868-1.308-4.13-10.22zM51.203 58.04s-.949 4.519-7.554 8.082c-6.606 3.563-4.726 7.842 0 6.896.708-.143 1.416-.301 2.116-.457 3.973-.888 7.688-1.718 9.69.59 2.354 2.714 5.903 2.51 9.917 0 3.74-2.34 5.223-1.678 6.75-.998h.001l.338.149c1.652.716 6.852-.477 5.2-4.28-.755-1.74-2.256-2.486-3.954-3.33-2.011-.999-4.3-2.136-5.963-5.228-.215-.398-.418-.78-.614-1.146-2.605-4.877-3.704-6.935-8.451-6.935-5.104 0-7.476 6.657-7.476 6.657zm-3.575-18.788c.369-2.122 1.643-4.598 2.723-5.526 1.73-1.495 5.016-1.433 5.543 5.349.492 6.419-1.924 10.026-3.927 10.31-2.002.282-5.903-1.185-4.34-10.133zm-4.076 6.932c1.08.928 2.354 3.404 2.723 5.526 1.555 8.947-2.337 10.415-4.34 10.132-2.002-.274-4.418-3.89-3.926-10.31.527-6.78 3.812-6.842 5.543-5.348z" clip-rule="evenodd"/>
    <defs>
        <linearGradient id="paint0_linear" x1="30.028" x2="83.333" y1="28.139" y2="81.444" gradientUnits="userSpaceOnUse">
            <stop stop-color="#F7D637"/>
            <stop offset="1" stop-color="#2FCF57"/>
        </linearGradient>
        <linearGradient id="paint1_linear" x1="38.05" x2="81.131" y1="44.384" y2="68.498" gradientUnits="userSpaceOnUse">
            <stop stop-color="#F7D637"/>
            <stop offset="1" stop-color="#2FCF57"/>
        </linearGradient>
        <filter id="filter0_d" width="116" height="116" x="0" y="0" color-interpolation-filters="sRGB" filterUnits="userSpaceOnUse">
            <feFlood flood-opacity="0" result="BackgroundImageFix"/>
            <feColorMatrix in="SourceAlpha" values="0 0 0 0 0 0 0 0 0 0 0 0 0 0 0 0 0 0 127 0"/>
            <feOffset dy="4"/>
            <feGaussianBlur stdDeviation="10"/>
            <feColorMatrix values="0 0 0 0 0 0 0 0 0 0 0 0 0 0 0 0 0 0 0.1 0"/>
            <feBlend in2="BackgroundImageFix" result="effect1_dropShadow"/>
            <feBlend in="SourceGraphic" in2="effect1_dropShadow" result="shape"/>
        </filter>
    </defs>
</svg>
