<svg xmlns="http://www.w3.org/2000/svg" width="40" height="40" fill="none" viewBox="0 0 40 40">
    <path stroke="#000" stroke-linecap="round" stroke-linejoin="round" stroke-width="2" d="M21.25 12.5l-2.5-3.75h-7.5l-2.5 3.75h-5c-.663 0-1.299.263-1.768.732-.469.47-.732 1.105-.732 1.768v13.75c0 .663.263 1.299.732 1.768.47.469 1.105.732 1.768.732h22.5c.663 0 1.299-.263 1.768-.732.469-.47.732-1.105.732-1.768v-6.875"/>
    <path stroke="#000" stroke-linecap="round" stroke-linejoin="round" stroke-width="2" d="M15 26.25c2.761 0 5-2.239 5-5s-2.239-5-5-5-5 2.239-5 5 2.239 5 5 5zM32.5 9.167v11.666M26.667 15h11.666"/>
</svg>
