<svg xmlns="http://www.w3.org/2000/svg" width="24" height="24" fill="none" viewBox="0 0 24 24">
    <g clip-path="url(#clip0)">
        <path fill="#121212" d="M19.886 4.329H6.557l-.128-.515c-.143-.657-.465-1.193-.965-1.607-.5-.414-1.093-.621-1.778-.621h-2.1c-.257 0-.472.085-.643.257-.172.171-.257.4-.257.686 0 .257.085.471.257.642.171.172.386.258.643.258h2.1c.543 0 .857.242.943.728l2.1 10.971c.171.6.507 1.086 1.007 1.458.5.371 1.05.557 1.65.557h8.657c.286 0 .514-.086.686-.257.171-.172.257-.386.257-.643 0-.629-.315-.943-.943-.943H9.386c-.4 0-.686-.171-.857-.514l-.086-.386h9.171c.572 0 1.093-.171 1.565-.514.471-.343.792-.786.964-1.329l2.486-5.271V7.07c0-.771-.265-1.421-.793-1.95-.529-.528-1.179-.792-1.95-.792zM8.914 12.557H8.1L6.9 6.171h2.014v6.386zm3.643 0h-1.8V6.171h1.8v6.386zm3.686 0H14.4V6.171h1.843v6.386zm2.271-.728v.085c-.085.286-.243.472-.471.557v-6.3h1.843c.514 0 .814.243.9.729l-2.272 4.929zm-6.857 8.057c0 .514-.178.95-.536 1.307-.357.357-.792.535-1.307.535-.485 0-.907-.178-1.264-.535-.357-.357-.536-.793-.536-1.307 0-.515.179-.95.536-1.307.357-.358.779-.536 1.264-.536.515 0 .95.178 1.307.536.358.357.536.792.536 1.307zm7.329 0c0 .514-.179.95-.536 1.307-.357.357-.793.535-1.307.535-.514 0-.95-.178-1.307-.535-.357-.357-.536-.793-.536-1.307 0-.515.179-.95.536-1.307.357-.358.793-.536 1.307-.536.514 0 .95.178 1.307.536.357.357.536.792.536 1.307z"/>
    </g>
    <defs>
        <clipPath id="clip0">
            <path fill="#fff" d="M0 0H21.943V21.257H0z" transform="translate(.686 1.371)"/>
        </clipPath>
    </defs>
</svg>
