<svg xmlns="http://www.w3.org/2000/svg" width="24" height="24" fill="none" viewBox="0 0 24 24">
    <path fill="#121212" d="M8.5 1c-1.07 0-2.002.608-2.594 1.438C5.314 3.268 5 4.34 5 5.5s.314 2.232.906 3.062C6.498 9.392 7.43 10 8.5 10c1.07 0 2.002-.608 2.594-1.438.592-.83.906-1.902.906-3.061 0-1.16-.314-2.233-.906-3.063C10.502 1.607 9.57 1 8.5 1zM12 5.5c0 1.16.314 2.232.906 3.062.592.83 1.525 1.437 2.594 1.437 1.07 0 2.002-.608 2.594-1.438.592-.83.906-1.902.906-3.061 0-1.16-.314-2.233-.906-3.063C17.502 1.607 16.57 1 15.5 1c-1.07 0-2.002.608-2.594 1.438C12.314 3.268 12 4.34 12 5.5zM8.5 3c.312 0 .656.156.97.594.31.437.53 1.133.53 1.906 0 .773-.22 1.47-.53 1.905-.314.438-.658.594-.97.594-.312 0-.656-.156-.97-.594C7.22 6.968 7 6.273 7 5.5c0-.773.22-1.47.53-1.906.314-.438.658-.594.97-.594zm7 0c.312 0 .656.156.97.594.31.437.53 1.133.53 1.906 0 .773-.22 1.47-.53 1.905-.314.438-.658.594-.97.594-.312 0-.656-.156-.97-.594C14.22 6.968 14 6.273 14 5.5c0-.773.22-1.47.53-1.906.314-.438.658-.594.97-.594zm-12 5C2.43 8 1.498 8.606.906 9.436.314 10.267 0 11.34 0 12.5s.314 2.233.906 3.063c.592.83 1.524 1.437 2.594 1.437 1.07 0 2.002-.608 2.594-1.438.592-.83.906-1.902.906-3.062s-.314-2.233-.906-3.063C5.502 8.606 4.57 8 3.5 8zm17 0c-1.07 0-2.002.607-2.594 1.437-.592.83-.906 1.902-.906 3.062s.314 2.233.906 3.063c.592.83 1.524 1.437 2.594 1.437 1.07 0 2.002-.608 2.594-1.438.592-.83.906-1.902.906-3.062s-.314-2.233-.906-3.063C22.502 8.606 21.57 8 20.5 8zm-17 2c.312 0 .656.155.97.593.31.437.53 1.133.53 1.906 0 .773-.22 1.47-.53 1.906-.314.438-.658.594-.97.594-.312 0-.656-.156-.97-.594-.31-.436-.53-1.133-.53-1.906 0-.773.22-1.47.53-1.906.314-.438.658-.594.97-.594zm17 0c.312 0 .656.155.97.593.31.437.53 1.133.53 1.906 0 .773-.22 1.47-.53 1.906-.314.438-.658.594-.97.594-.312 0-.656-.156-.97-.594-.31-.437-.53-1.133-.53-1.906 0-.773.22-1.47.53-1.906.314-.438.658-.594.97-.594zM12 11.998c-1.333 0-2.263.865-2.72 1.625-.454.76-.734 1.392-1 1.656-.153.157-1.118.52-2.124 1.033-.503.257-1.01.6-1.437 1.125-.43.524-.72 1.25-.72 2.062 0 1.92 1.58 3.5 3.5 3.5.866 0 1.77-.28 2.655-.53.889-.256 1.846-.472 1.846-.472s.957.216 1.844.47c.886.25 1.79.53 2.656.53 1.92 0 3.5-1.58 3.5-3.5 0-.794-.293-1.52-.72-2.03-.425-.512-.937-.83-1.436-1.094-1-.53-1.983-.95-2.125-1.094-.24-.237-.51-.89-.97-1.654-.459-.767-1.409-1.627-2.749-1.627zm0 2c.66 0 .733.16 1.03.656.3.495.524 1.336 1.25 2.063.825.82 1.867 1 2.626 1.403.38.202.67.417.844.625.173.207.25.396.25.75 0 .84-.66 1.5-1.5 1.5-.29 0-1.224-.22-2.094-.47-.87-.247-1.59-.53-2.406-.53-.816 0-1.536.283-2.406.53-.87.25-1.804.47-2.094.47-.84 0-1.5-.66-1.5-1.5 0-.403.084-.61.25-.814.166-.203.472-.404.844-.593.744-.38 1.78-.53 2.625-1.374.733-.737.953-1.605 1.25-2.095.292-.49.362-.625 1.03-.625l.001.004z"/>
</svg>
