<svg xmlns="http://www.w3.org/2000/svg" width="87" height="15" fill="none" viewBox="0 0 87 15">
    <path fill="#999" d="M6.064 5.756H4.228V14h-2.07V5.756H.988V4.082h1.17V3.38c0-1.14.3-1.968.9-2.484C3.67.368 4.624.104 5.92.104v1.71c-.624 0-1.062.12-1.314.36-.252.228-.378.63-.378 1.206v.702h1.836v1.674zm6.12 8.406c-.936 0-1.782-.21-2.538-.63-.756-.432-1.35-1.032-1.782-1.8-.432-.78-.648-1.68-.648-2.7 0-1.008.222-1.902.666-2.682.444-.78 1.05-1.38 1.818-1.8.768-.42 1.626-.63 2.574-.63s1.806.21 2.574.63c.768.42 1.374 1.02 1.818 1.8.444.78.666 1.674.666 2.682s-.228 1.902-.684 2.682c-.456.78-1.08 1.386-1.872 1.818-.78.42-1.644.63-2.592.63zm0-1.782c.528 0 1.02-.126 1.476-.378.468-.252.846-.63 1.134-1.134.288-.504.432-1.116.432-1.836s-.138-1.326-.414-1.818c-.276-.504-.642-.882-1.098-1.134-.456-.252-.948-.378-1.476-.378s-1.02.126-1.476.378c-.444.252-.798.63-1.062 1.134-.264.492-.396 1.098-.396 1.818 0 1.068.27 1.896.81 2.484.552.576 1.242.864 2.07.864zm9.229-6.858c.3-.504.696-.894 1.188-1.17.504-.288 1.098-.432 1.782-.432v2.124h-.522c-.804 0-1.416.204-1.836.612-.408.408-.612 1.116-.612 2.124V14H19.36V4.082h2.052v1.44zm13.132 8.64c-.78 0-1.482-.138-2.106-.414-.612-.288-1.098-.672-1.458-1.152-.36-.492-.552-1.038-.576-1.638h2.124c.036.42.234.774.594 1.062.372.276.834.414 1.386.414.576 0 1.02-.108 1.332-.324.324-.228.486-.516.486-.864 0-.372-.18-.648-.54-.828-.348-.18-.906-.378-1.674-.594-.744-.204-1.35-.402-1.818-.594-.468-.192-.876-.486-1.224-.882-.336-.396-.504-.918-.504-1.566 0-.528.156-1.008.468-1.44.312-.444.756-.792 1.332-1.044.588-.252 1.26-.378 2.016-.378 1.128 0 2.034.288 2.718.864.696.564 1.068 1.338 1.116 2.322h-2.052c-.036-.444-.216-.798-.54-1.062-.324-.264-.762-.396-1.314-.396-.54 0-.954.102-1.242.306-.288.204-.432.474-.432.81 0 .264.096.486.288.666.192.18.426.324.702.432.276.096.684.222 1.224.378.72.192 1.308.39 1.764.594.468.192.87.48 1.206.864.336.384.51.894.522 1.53 0 .564-.156 1.068-.468 1.512-.312.444-.756.792-1.332 1.044-.564.252-1.23.378-1.998.378zM49.65 8.798c0 .372-.024.708-.072 1.008H42c.06.792.354 1.428.882 1.908s1.176.72 1.944.72c1.104 0 1.884-.462 2.34-1.386h2.214c-.3.912-.846 1.662-1.638 2.25-.78.576-1.752.864-2.916.864-.948 0-1.8-.21-2.556-.63-.744-.432-1.332-1.032-1.764-1.8-.42-.78-.63-1.68-.63-2.7 0-1.02.204-1.914.612-2.682.42-.78 1.002-1.38 1.746-1.8.756-.42 1.62-.63 2.592-.63.936 0 1.77.204 2.502.612.732.408 1.302.984 1.71 1.728.408.732.612 1.578.612 2.538zm-2.142-.648c-.012-.756-.282-1.362-.81-1.818-.528-.456-1.182-.684-1.962-.684-.708 0-1.314.228-1.818.684-.504.444-.804 1.05-.9 1.818h5.49zM53.721.68V14H51.67V.68h2.052zm4.746 0V14h-2.052V.68h2.052zm11.784 8.118c0 .372-.023.708-.072 1.008h-7.578c.06.792.355 1.428.883 1.908.527.48 1.175.72 1.943.72 1.104 0 1.884-.462 2.34-1.386h2.215c-.3.912-.847 1.662-1.638 2.25-.78.576-1.752.864-2.916.864-.948 0-1.8-.21-2.556-.63-.745-.432-1.333-1.032-1.764-1.8-.42-.78-.63-1.68-.63-2.7 0-1.02.203-1.914.611-2.682.42-.78 1.003-1.38 1.747-1.8.756-.42 1.62-.63 2.591-.63.936 0 1.77.204 2.502.612.733.408 1.302.984 1.71 1.728.409.732.612 1.578.612 2.538zM68.11 8.15c-.011-.756-.281-1.362-.81-1.818-.528-.456-1.181-.684-1.962-.684-.708 0-1.314.228-1.818.684-.503.444-.803 1.05-.9 1.818h5.49zm6.214-2.628c.3-.504.696-.894 1.188-1.17.504-.288 1.098-.432 1.782-.432v2.124h-.522c-.804 0-1.416.204-1.836.612-.408.408-.612 1.116-.612 2.124V14H72.27V4.082h2.052v1.44zm8.456 8.64c-.78 0-1.482-.138-2.106-.414-.612-.288-1.098-.672-1.458-1.152-.36-.492-.552-1.038-.576-1.638h2.124c.036.42.234.774.594 1.062.372.276.834.414 1.386.414.576 0 1.02-.108 1.332-.324.324-.228.486-.516.486-.864 0-.372-.18-.648-.54-.828-.348-.18-.906-.378-1.674-.594-.744-.204-1.35-.402-1.818-.594-.468-.192-.876-.486-1.224-.882-.336-.396-.504-.918-.504-1.566 0-.528.156-1.008.468-1.44.312-.444.756-.792 1.332-1.044.588-.252 1.26-.378 2.016-.378 1.128 0 2.034.288 2.718.864.696.564 1.068 1.338 1.116 2.322H84.4c-.036-.444-.216-.798-.54-1.062-.324-.264-.762-.396-1.314-.396-.54 0-.954.102-1.242.306-.288.204-.432.474-.432.81 0 .264.096.486.288.666.192.18.426.324.702.432.276.096.684.222 1.224.378.72.192 1.308.39 1.764.594.468.192.87.48 1.206.864.336.384.51.894.522 1.53 0 .564-.156 1.068-.468 1.512-.312.444-.756.792-1.332 1.044-.564.252-1.23.378-1.998.378z"/>
</svg>
