<svg xmlns="http://www.w3.org/2000/svg" width="24" height="24" fill="none" viewBox="0 0 24 24">
    <path stroke="#121212" stroke-linecap="round" stroke-linejoin="round" stroke-width="2" d="M20.84 4.61c-.51-.51-1.117-.916-1.785-1.193-.667-.276-1.383-.419-2.105-.419-.723 0-1.438.143-2.105.42-.668.276-1.274.681-1.785 1.192L12 5.67l-1.06-1.06C9.908 3.578 8.509 3 7.05 3s-2.858.58-3.89 1.611C2.128 5.642 1.549 7.041 1.549 8.5c0 1.46.58 2.858 1.611 3.89l1.06 1.06L12 21.23l7.78-7.78 1.06-1.06c.511-.51.916-1.117 1.193-1.785.276-.667.419-1.382.419-2.105 0-.722-.143-1.438-.42-2.105-.276-.668-.681-1.274-1.192-1.785v0z"/>
</svg>
