<svg xmlns="http://www.w3.org/2000/svg" width="16" height="16" fill="none" viewBox="0 0 16 16">
    <path stroke="#2FCF57" stroke-linecap="round" stroke-linejoin="round" d="M14 6.667c0 4.666-6 8.666-6 8.666s-6-4-6-8.666c0-1.592.632-3.118 1.757-4.243C4.883 1.3 6.41.667 8 .667c1.591 0 3.117.632 4.243 1.757C13.368 3.55 14 5.075 14 6.667z"/>
    <path stroke="#2FCF57" stroke-linecap="round" stroke-linejoin="round" d="M8 8.667c1.105 0 2-.896 2-2 0-1.105-.895-2-2-2s-2 .895-2 2c0 1.104.895 2 2 2z"/>
</svg>
