<svg xmlns="http://www.w3.org/2000/svg" width="104" height="32" fill="none" viewBox="0 0 104 32">
    <path fill="url(#paint0_linear)" d="M18.854 8.556V24h-3.762v-9.262L11.638 24H8.602l-3.476-9.284V24H1.364V8.556h4.444l4.334 10.692 4.29-10.692h4.422zm1.957 9.284c0-1.261.235-2.369.704-3.322.484-.953 1.137-1.687 1.958-2.2.822-.513 1.738-.77 2.75-.77.866 0 1.621.176 2.266.528.66.352 1.166.814 1.518 1.386v-1.738h3.762V24h-3.762v-1.738c-.366.572-.88 1.034-1.54 1.386-.645.352-1.4.528-2.266.528-.997 0-1.906-.257-2.728-.77-.821-.528-1.474-1.269-1.958-2.222-.469-.968-.704-2.083-.704-3.344zm9.196.022c0-.939-.264-1.68-.792-2.222-.513-.543-1.144-.814-1.892-.814s-1.386.271-1.914.814c-.513.528-.77 1.261-.77 2.2 0 .939.257 1.687.77 2.244.528.543 1.166.814 1.914.814s1.379-.271 1.892-.814c.528-.543.792-1.283.792-2.222zm10.246-4.092c.44-.675.99-1.203 1.65-1.584.66-.396 1.393-.594 2.2-.594v3.982h-1.034c-.939 0-1.643.205-2.112.616-.47.396-.704 1.1-.704 2.112V24h-3.762V11.724h3.762v2.046zM53.403 24l-3.74-5.148V24h-3.762V7.72h3.762v8.998l3.718-4.994h4.642l-5.104 6.16L58.067 24h-4.664zm15.558-9.284v3.124h-9.68v-3.124h9.68zm2.553 3.124c0-1.261.235-2.369.704-3.322.484-.953 1.137-1.687 1.958-2.2.822-.513 1.738-.77 2.75-.77.866 0 1.621.176 2.266.528.66.352 1.166.814 1.518 1.386v-1.738h3.762V24H80.71v-1.738c-.366.572-.88 1.034-1.54 1.386-.645.352-1.4.528-2.266.528-.997 0-1.906-.257-2.728-.77-.82-.528-1.474-1.269-1.958-2.222-.469-.968-.704-2.083-.704-3.344zm9.196.022c0-.939-.264-1.68-.792-2.222-.513-.543-1.144-.814-1.892-.814s-1.386.271-1.914.814c-.513.528-.77 1.261-.77 2.2 0 .939.257 1.687.77 2.244.528.543 1.166.814 1.914.814s1.38-.271 1.892-.814c.528-.543.792-1.283.792-2.222zm13.326 2.948V24h-1.914c-1.364 0-2.427-.33-3.19-.99-.763-.675-1.144-1.767-1.144-3.278v-4.884h-1.496v-3.124h1.496V8.732h3.762v2.992h2.464v3.124H91.55v4.928c0 .367.088.63.264.792.176.161.47.242.88.242h1.342zm7.046-12.804l-.44 10.538h-3.19l-.44-10.538h4.07zm-1.98 16.17c-.66 0-1.203-.19-1.628-.572-.411-.396-.616-.88-.616-1.452 0-.587.205-1.078.616-1.474.425-.396.968-.594 1.628-.594.645 0 1.173.198 1.584.594.425.396.638.887.638 1.474 0 .572-.213 1.056-.638 1.452-.411.381-.94.572-1.584.572z"/>
    <defs>
        <linearGradient id="paint0_linear" x1="2.5" x2="100.5" y1="16" y2="16" gradientUnits="userSpaceOnUse">
            <stop stop-color="#F7D637"/>
            <stop offset="1" stop-color="#2FCF57"/>
        </linearGradient>
    </defs>
</svg>
