<svg xmlns="http://www.w3.org/2000/svg" width="16" height="16" fill="none" viewBox="0 0 16 16">
    <path stroke="#2FCF57" stroke-linecap="round" stroke-linejoin="round" d="M10.033 3.333c.652.127 1.25.446 1.72.915.468.47.787 1.068.914 1.719m-2.634-5.3c1.353.15 2.615.756 3.578 1.718.963.962 1.57 2.222 1.722 3.575m-.666 5.32v2c0 .186-.038.37-.112.54-.074.17-.183.322-.32.448-.137.125-.299.221-.474.28-.176.06-.363.082-.548.065-2.051-.223-4.022-.923-5.753-2.046-1.61-1.024-2.976-2.39-4-4-1.127-1.74-1.828-3.72-2.047-5.78-.016-.185.006-.37.065-.546.059-.175.154-.336.279-.473.124-.137.276-.246.446-.32.169-.076.352-.114.537-.115h2c.324-.003.637.112.883.323.245.21.405.504.45.824.085.64.241 1.269.467 1.873.09.239.11.498.056.748-.053.249-.177.478-.356.66l-.847.846c.95 1.669 2.331 3.05 4 4l.847-.847c.181-.18.41-.303.66-.356.249-.053.508-.034.747.056.605.226 1.233.382 1.873.467.324.045.62.209.831.458.211.25.324.568.316.895z"/>
</svg>
