<svg xmlns="http://www.w3.org/2000/svg" width="24" height="24" fill="black" viewBox="0 0 24 24">
    <path stroke="#fff" stroke-linecap="round" stroke-linejoin="round" stroke-width="2" d="M12 15c1.657 0 3-1.343 3-3s-1.343-3-3-3-3 1.343-3 3 1.343 3 3 3z"/>
    <path stroke="#fff" stroke-linecap="round" stroke-linejoin="round" stroke-width="2" d="M19.4 15c-.133.302-.173.636-.114.96.059.325.213.624.444.86l.06.06c.186.186.334.406.434.65.1.242.153.502.153.765s-.052.523-.153.766c-.1.243-.248.463-.434.649s-.406.334-.65.434c-.242.1-.502.153-.765.153s-.523-.052-.766-.153c-.243-.1-.463-.248-.649-.434l-.06-.06c-.236-.23-.535-.385-.86-.444-.324-.059-.658-.02-.96.114-.296.127-.548.337-.726.605-.177.269-.273.583-.274.905V21c0 .53-.21 1.04-.586 1.414-.375.375-.884.586-1.414.586-.53 0-1.04-.21-1.414-.586-.375-.375-.586-.884-.586-1.414v-.09c-.008-.331-.115-.652-.307-.921-.193-.27-.462-.475-.773-.589-.302-.133-.636-.173-.96-.114-.325.059-.624.213-.86.444l-.06.06c-.186.186-.406.334-.65.434-.242.1-.502.153-.765.153s-.523-.052-.766-.153c-.243-.1-.463-.248-.649-.434s-.333-.406-.434-.65c-.1-.242-.153-.502-.153-.765s.052-.523.153-.766c.1-.243.248-.463.434-.649l.06-.06c.23-.236.385-.535.444-.86.059-.324.02-.658-.114-.96-.127-.296-.337-.548-.606-.726-.268-.177-.582-.273-.904-.274H3c-.53 0-1.04-.21-1.414-.586C1.21 13.12 1 12.61 1 12.08c0-.53.21-1.04.586-1.414.375-.375.884-.586 1.414-.586h.09c.331-.008.652-.115.921-.307.27-.193.475-.462.589-.773.133-.302.173-.636.114-.96-.059-.325-.213-.624-.444-.86l-.06-.06c-.186-.186-.333-.406-.434-.65-.1-.242-.153-.502-.153-.765s.052-.523.153-.766c.1-.243.248-.463.434-.649s.406-.333.65-.434c.242-.1.502-.153.765-.153s.523.052.766.153c.243.1.463.248.649.434l.06.06c.236.23.535.385.86.444.324.059.658.02.96-.114H9c.296-.127.548-.337.726-.606.177-.268.273-.582.274-.904V3c0-.53.21-1.04.586-1.414C10.96 1.21 11.47 1 12 1c.53 0 1.04.21 1.414.586C13.79 1.96 14 2.47 14 3v.09c.001.322.097.636.274.904.178.269.43.48.726.606.302.133.636.173.96.114.325-.059.624-.213.86-.444l.06-.06c.186-.186.406-.333.65-.434.242-.1.502-.153.765-.153s.523.052.766.153c.243.1.463.248.649.434s.334.406.434.65c.1.242.153.502.153.765s-.052.523-.153.766c-.1.243-.248.463-.434.649l-.06.06c-.23.236-.385.535-.444.86-.059.324-.02.658.114.96V9c.127.296.337.548.605.726.269.177.583.273.905.274H21c.53 0 1.04.21 1.414.586.375.375.586.884.586 1.414 0 .53-.21 1.04-.586 1.414C22.04 13.79 21.53 14 21 14h-.09c-.322.001-.636.097-.904.274-.269.178-.48.43-.606.726v0z"/>
</svg>
