<svg xmlns="http://www.w3.org/2000/svg" width="16" height="16" fill="none" viewBox="0 0 16 16">
    <path stroke="#fff" stroke-linecap="round" stroke-linejoin="round" d="M8 14c3.314 0 6-2.686 6-6s-2.686-6-6-6-6 2.686-6 6 2.686 6 6 6z"/>
    <path stroke="#fff" stroke-linecap="round" stroke-linejoin="round" d="M9.867 6c-.121-.21-.297-.382-.508-.5-.211-.117-.45-.175-.692-.167H7.333c-.353 0-.692.14-.942.39S6 6.314 6 6.668c0 .353.14.692.39.942s.59.39.943.39h1.334c.353 0 .692.141.942.391s.391.59.391.943c0 .354-.14.693-.39.943s-.59.39-.943.39H7.333c-.241.009-.48-.049-.692-.166-.211-.118-.387-.29-.508-.5M8 10.667V12m0-8v1.333V4z"/>
</svg>
